<?xml version="1.0" standalone="no"?>
<!DOCTYPE svg PUBLIC "-//W3C//DTD SVG 20010904//EN"
 "http://www.w3.org/TR/2001/REC-SVG-20010904/DTD/svg10.dtd">
<svg version="1.0" xmlns="http://www.w3.org/2000/svg"
 width="591.000000pt" height="591.000000pt" viewBox="0 0 591.000000 591.000000"
 preserveAspectRatio="xMidYMid meet">
<metadata>
Created by potrace 1.14, written by Peter Selinger 2001-2017
</metadata>
<g transform="translate(0.000000,591.000000) scale(0.100000,-0.100000)"
fill="#000000" stroke="none">
<path d="M2887 5904 c-1 -1 -44 -5 -94 -8 -51 -4 -103 -9 -115 -11 -13 -2 -41
-6 -63 -9 -142 -20 -449 -95 -560 -137 -62 -23 -103 -60 -150 -134 -43 -67
-124 -238 -171 -358 l-38 -98 -40 38 c-22 21 -43 41 -46 44 -3 3 -32 29 -65
59 -33 29 -75 66 -92 82 -231 204 -603 428 -773 464 -59 13 -63 13 -110 15
-87 3 -136 -39 -155 -131 -2 -8 -10 -42 -18 -75 -45 -173 -61 -327 -61 -560 0
-145 10 -351 19 -365 1 -3 6 -32 10 -65 3 -33 13 -90 21 -127 7 -37 16 -82 19
-100 18 -104 112 -430 193 -672 l40 -118 -39 -72 c-39 -70 -105 -203 -149
-301 -57 -126 -148 -398 -164 -490 -3 -16 -10 -55 -16 -85 -60 -310 -9 -650
142 -955 27 -54 91 -163 110 -190 4 -5 35 -47 68 -93 158 -216 412 -462 660
-638 30 -21 61 -44 67 -50 39 -37 347 -233 460 -292 161 -85 383 -186 518
-236 55 -21 109 -42 120 -47 38 -16 240 -87 321 -112 44 -14 103 -35 130 -47
64 -30 121 -29 214 5 41 15 158 56 260 91 299 105 419 155 645 270 499 253
980 622 1261 969 213 262 362 574 399 835 3 25 9 59 11 75 8 41 7 251 -1 306
-3 24 -8 62 -11 84 -30 223 -116 468 -293 826 -45 90 -81 170 -81 178 0 7 24
91 54 185 144 453 200 708 223 1006 12 155 5 496 -12 560 -2 8 -6 35 -9 60
-12 91 -57 266 -81 316 -27 55 -65 80 -114 76 -115 -8 -192 -32 -346 -109
-224 -112 -452 -281 -724 -535 -35 -33 -67 -56 -71 -51 -5 4 -23 44 -41 88
-81 204 -205 421 -260 454 -25 15 -227 79 -308 96 -12 3 -29 7 -38 9 -69 17
-121 28 -140 32 -63 11 -83 15 -138 24 -103 16 -367 33 -378 24z"/>
</g>
</svg>
