<svg width="65" height="65" viewBox="0 0 65 65" fill="none" xmlns="http://www.w3.org/2000/svg">
<g clip-path="url(#clip0_1452_62294)">
<path d="M24.2766 25.8112C23.9095 25.2265 23.1382 25.05 22.5533 25.4171L17.1501 28.8086C16.5653 29.1756 16.3888 29.9471 16.756 30.5318C16.9933 30.9101 17.4 31.1175 17.8158 31.1175C18.0428 31.1175 18.2726 31.0556 18.4792 30.926L23.8825 27.5345C24.4672 27.1675 24.6437 26.396 24.2766 25.8112Z" fill="#764AF1"/>
<path d="M15.8328 31.1137C15.4663 30.5288 14.6954 30.3515 14.1099 30.7177L14.0848 30.7335C13.4997 31.1 13.3224 31.8712 13.6888 32.4564C13.926 32.8352 14.333 33.0431 14.7494 33.0431C14.976 33.0431 15.2054 32.9815 15.4117 32.8524L15.4368 32.8366C16.0219 32.4701 16.1992 31.6989 15.8328 31.1137Z" fill="#764AF1"/>
<path d="M64.2867 1.0525C63.9355 0.530377 63.2509 0.350627 62.6887 0.633127L25.6857 19.214C25.2679 19.4237 25.0021 19.8491 24.9967 20.3166C24.9912 20.7841 25.2471 21.2155 25.66 21.4348L32.9491 25.309L16.3199 35.7474C15.9419 35.9847 15.7191 36.4053 15.7353 36.8512C15.7513 37.2971 16.0038 37.7006 16.3978 37.9099L24.497 42.2147L0.939157 62.2986C0.450408 62.7153 0.356908 63.4344 0.722783 63.9621C0.964032 64.3099 1.35291 64.5 1.75091 64.5C1.95691 64.5 2.16515 64.4491 2.35665 64.3429L40.3535 43.258C40.7541 43.0357 41.0009 42.6119 40.9968 42.1537C40.9927 41.6955 40.7382 41.2762 40.3335 41.0612L32.9302 37.1262L50.2007 26.009C50.5751 25.768 50.7929 25.3458 50.7727 24.901C50.7524 24.4561 50.4971 24.0556 50.1023 23.8496L43.7091 20.514L64.0728 2.69075C64.5463 2.27637 64.638 1.57462 64.2867 1.0525ZM40.6876 19.8365C40.3771 20.1082 40.2207 20.5158 40.2696 20.9255C40.3187 21.3352 40.5667 21.6943 40.9326 21.8852L47.0389 25.0711L29.7843 36.1781C29.4115 36.4182 29.1935 36.8381 29.2121 37.2813C29.2305 37.7246 29.4826 38.1248 29.8743 38.3329L37.1282 42.1885L12.0721 56.0925L27.5175 42.9248C27.8325 42.6563 27.9941 42.2493 27.9492 41.8379C27.9044 41.4264 27.6587 41.064 27.2932 40.8698L19.4786 36.7163L36.108 26.2776C36.4858 26.0403 36.7087 25.6197 36.6926 25.1738C36.6766 24.728 36.4241 24.3245 36.0301 24.1151L28.9695 20.3625L55.0484 7.26711L40.6876 19.8365Z" fill="#9397AD"/>
<path d="M47.91 43.9253C47.5744 43.3218 46.8129 43.1051 46.2101 43.4406L46.1841 43.4551C45.5808 43.7907 45.3637 44.5518 45.6994 45.1552C45.9279 45.5661 46.3538 45.7977 46.7928 45.7977C46.9986 45.7977 47.2071 45.7468 47.3994 45.6398L47.4254 45.6253C48.0287 45.2897 48.2458 44.5286 47.91 43.9253Z" fill="#764AF1"/>
<path d="M44.7445 45.6825C44.4094 45.0789 43.6484 44.861 43.0449 45.1961L37.4669 48.2916C36.8633 48.6266 36.6455 49.3875 36.9804 49.9911C37.2088 50.4026 37.635 50.6348 38.0745 50.6348C38.2798 50.6348 38.4879 50.5841 38.68 50.4775L44.258 47.382C44.8616 47.047 45.0794 46.2861 44.7445 45.6825Z" fill="#764AF1"/>
</g>
<defs>
<clipPath id="clip0_1452_62294">
<rect width="64" height="64" fill="white" transform="translate(0.5 0.5)"/>
</clipPath>
</defs>
</svg>
