<svg width="27" height="36" viewBox="0 0 27 36" fill="none" xmlns="http://www.w3.org/2000/svg">
<g clip-path="url(#clip0_2076_33008)">
<path d="M19.3219 0.442125C19.6453 0.157289 20.0602 0 20.4891 0C21.6984 0 22.5422 1.19883 22.1344 2.3393L17.3461 15.75H25.0383C26.1492 15.75 27 16.6008 27 17.6484C27 18.1969 26.768 18.7172 26.3602 19.0758L7.67109 35.5641C7.35469 35.8453 6.93984 36 6.51305 36C5.30227 36 4.45711 34.7977 4.86422 33.6586L9.65391 20.25H1.81477C0.812812 20.25 0 19.4344 0 18.4359C0 17.9156 0.221695 17.4234 0.609187 17.0789L19.3219 0.442125ZM19.3641 3.4207L2.95875 18H11.25C11.6156 18 11.9602 18.1758 12.1711 18.4781C12.382 18.7734 12.4313 19.1602 12.3117 19.5047L7.63594 32.5969L24.1734 18H15.75C15.3844 18 15.0398 17.8242 14.8289 17.5219C14.618 17.1633 14.5687 16.8398 14.6883 16.4953L19.3641 3.4207Z" fill="#98A2B3"/>
<path d="M20.5789 12.9576L25.3141 9.19043M1.35706 27.0705L6.46874 22.7811" stroke="#764AF1" stroke-width="2.3" stroke-linecap="round"/>
</g>
<defs>
<clipPath id="clip0_2076_33008">
<rect width="27" height="36" fill="white"/>
</clipPath>
</defs>
</svg>
