<svg width="36" height="36" viewBox="0 0 36 36" fill="none" xmlns="http://www.w3.org/2000/svg">
<path d="M28.3725 10.4807L35.5725 17.0434C35.8481 17.2895 36 17.6395 36 17.9512C36 18.3614 35.8481 18.6622 35.5725 18.9575L28.3725 25.5202C27.8269 26.0178 26.9775 25.9905 26.4656 25.46C25.9537 24.9295 25.9819 24.1037 26.5275 23.606L32.6756 17.9512L26.5275 12.3948C25.9819 11.8971 25.9537 11.0713 26.4656 10.5408C26.9775 10.0104 27.8269 9.98302 28.3725 10.4807ZM9.4725 12.3948L3.32381 17.9512L9.4725 23.606C10.0181 24.1037 10.0463 24.9295 9.53438 25.46C9.0225 25.9905 8.17313 26.0178 7.6275 25.5202L0.426656 18.9575C0.154462 18.6622 0 18.3614 0 17.9512C0 17.6395 0.154462 17.2895 0.426656 17.0434L7.6275 10.4807C8.17313 9.98302 9.0225 10.0104 9.53438 10.5408C10.0463 11.0713 10.0181 11.8971 9.4725 12.3948Z" fill="#98A2B3"/>
<path d="M15.639 31.0769L23.739 5.70181C23.964 5.00944 23.5646 4.27421 22.8503 4.05933C22.1415 3.84446 21.3821 4.23155 21.1628 4.92413L13.0628 30.3004C12.8378 30.9894 13.2371 31.6785 13.9515 31.941C14.6603 32.1543 15.369 31.7715 15.639 31.0769Z" fill="#764AF1"/>
</svg>
