<svg width="65" height="65" viewBox="0 0 65 65" fill="none" xmlns="http://www.w3.org/2000/svg">
<path d="M26.8343 23.744H55.8368C56.3585 23.744 56.7814 23.2886 56.7814 22.7267C56.7814 22.1649 56.3585 21.7095 55.8368 21.7095H26.8343C26.3125 21.7095 25.8896 22.1649 25.8896 22.7267C25.8896 23.2886 26.3125 23.744 26.8343 23.744Z" fill="#9397AD"/>
<path d="M26.8343 31.1559H55.8368C56.3585 31.1559 56.7814 30.7005 56.7814 30.1386C56.7814 29.5767 56.3585 29.1213 55.8368 29.1213H26.8343C26.3125 29.1213 25.8896 29.5767 25.8896 30.1386C25.8896 30.7005 26.3125 31.1559 26.8343 31.1559Z" fill="#9397AD"/>
<path d="M34.5811 36.5371H23.3797C22.8579 36.5371 22.4351 36.9925 22.4351 37.5544C22.4351 38.1162 22.8579 38.5716 23.3797 38.5716H34.5811C35.1028 38.5716 35.5257 38.1162 35.5257 37.5544C35.5257 36.9925 35.1028 36.5371 34.5811 36.5371Z" fill="#9397AD"/>
<path d="M10.249 37.5544C10.249 38.1162 10.672 38.5716 11.1936 38.5716H18.3849C18.9066 38.5716 19.3295 38.1162 19.3295 37.5544C19.3295 36.9925 18.9066 36.5371 18.3849 36.5371H11.1936C10.6719 36.5372 10.249 36.9927 10.249 37.5544Z" fill="#9397AD"/>
<path d="M12.9822 33.5668C13.504 33.5668 13.9268 33.1114 13.9268 32.5496C13.9268 31.9877 13.504 31.5323 12.9822 31.5323C12.4548 31.5323 11.8262 31.2463 11.8262 29.883V28.4487C11.8262 27.6104 11.5987 27.0423 11.2977 26.6498C11.5986 26.2571 11.8262 25.689 11.8262 24.8514V23.4171C11.8262 22.054 12.4548 21.7679 12.9822 21.7679C13.504 21.7679 13.9268 21.3125 13.9268 20.7507C13.9268 20.1888 13.504 19.7334 12.9822 19.7334C11.4663 19.7334 9.93684 20.8725 9.93684 23.417V24.8512C9.93684 25.3855 9.84659 25.4216 9.41309 25.5955C9.31384 25.6354 9.21134 25.6765 9.10684 25.7285C8.63334 25.9644 8.42709 26.569 8.64609 27.0789C8.73209 27.2791 8.87184 27.4331 9.03747 27.5343C9.05759 27.5485 9.31872 27.6691 9.41284 27.7065C9.84659 27.8784 9.93684 27.9142 9.93684 28.4485V29.8827C9.93684 32.4278 11.4663 33.5668 12.9822 33.5668V33.5668Z" fill="#764AF1"/>
<path d="M19.0519 29.7229C19.0519 31.0861 18.4233 31.3721 17.8959 31.3721C17.3742 31.3721 16.9513 31.8275 16.9513 32.3894C16.9513 32.9512 17.3742 33.4066 17.8959 33.4066C19.4118 33.4066 20.9413 32.2676 20.9413 29.7231V28.2926C20.9413 27.7583 21.0315 27.7221 21.465 27.5483C21.5597 27.5103 21.6574 27.4705 21.7568 27.4219C21.7595 27.4206 21.8 27.3994 21.811 27.3915C21.9913 27.2903 22.1437 27.128 22.2343 26.9135C22.4504 26.4022 22.2407 25.799 21.7659 25.5663C21.6633 25.5161 21.5625 25.476 21.4652 25.4375C21.0314 25.2656 20.9412 25.2297 20.9412 24.6954V23.2611C20.9412 20.7165 19.4117 19.5774 17.8958 19.5774C17.374 19.5774 16.9512 20.0328 16.9512 20.5947C16.9512 21.1565 17.374 21.6119 17.8958 21.6119C18.4232 21.6119 19.0518 21.898 19.0518 23.2612V24.6955C19.0518 25.5337 19.2793 26.1018 19.5803 26.4944C19.2794 26.8871 19.0518 27.4552 19.0518 28.2928V29.7229H19.0519Z" fill="#764AF1"/>
<path d="M33.9579 43.9492H11.0696C10.5479 43.9492 10.125 44.4046 10.125 44.9665C10.125 45.5283 10.5479 45.9837 11.0696 45.9837H33.9578C34.4795 45.9837 34.9024 45.5283 34.9024 44.9665C34.9024 44.4046 34.4795 43.9492 33.9579 43.9492V43.9492Z" fill="#9397AD"/>
<path d="M33.8339 51.365H10.9456C10.4239 51.365 10.001 51.8204 10.001 52.3823C10.001 52.9441 10.4239 53.3995 10.9456 53.3995H33.8337C34.3555 53.3995 34.7784 52.9441 34.7784 52.3823C34.7784 51.8204 34.3555 51.365 33.8339 51.365Z" fill="#9397AD"/>
<path d="M54.5781 11.0641C56.2046 11.0641 57.5277 9.63915 57.5277 7.88771C57.5277 6.13627 56.2046 4.71143 54.5781 4.71143C52.9497 4.71143 51.625 6.13627 51.625 7.88771C51.625 9.63915 52.9496 11.0641 54.5781 11.0641ZM54.5781 6.74595C55.1629 6.74595 55.6385 7.25822 55.6385 7.88785C55.6385 8.51747 55.1627 9.02974 54.5781 9.02974C53.9915 9.02974 53.5141 8.51747 53.5141 7.88785C53.5141 7.25822 53.9914 6.74595 54.5781 6.74595Z" fill="#9397AD"/>
<path d="M46.0551 11.0641C47.6817 11.0641 49.0048 9.63915 49.0048 7.88771C49.0048 6.13627 47.6817 4.71143 46.0551 4.71143C44.4286 4.71143 43.1055 6.13627 43.1055 7.88771C43.1055 9.63915 44.4286 11.0641 46.0551 11.0641ZM46.0551 6.74595C46.6398 6.74595 47.1156 7.25822 47.1156 7.88785C47.1156 8.51747 46.6397 9.02974 46.0551 9.02974C45.4703 9.02974 44.9947 8.51747 44.9947 7.88785C44.9947 7.25822 45.4703 6.74595 46.0551 6.74595Z" fill="#9397AD"/>
<path d="M37.5318 11.0641C39.1583 11.0641 40.4814 9.63915 40.4814 7.88771C40.4814 6.13627 39.1583 4.71143 37.5318 4.71143C35.9052 4.71143 34.582 6.13627 34.582 7.88771C34.582 9.63915 35.9052 11.0641 37.5318 11.0641ZM37.5318 6.74595C38.1165 6.74595 38.5922 7.25822 38.5922 7.88785C38.5922 8.51747 38.1164 9.02974 37.5318 9.02974C36.9472 9.02974 36.4713 8.51747 36.4713 7.88785C36.4712 7.25822 36.947 6.74595 37.5318 6.74595Z" fill="#9397AD"/>
<path d="M57.2072 0.5H7.78925C3.77 0.5 0.5 4.02121 0.5 8.34936V56.647C0.5 60.977 3.77 64.5 7.78925 64.5H57.2072C61.2285 64.5 64.5 60.977 64.5 56.6469V8.34936C64.5 4.02121 61.2285 0.5 57.2072 0.5V0.5ZM57.2072 62.4656H7.78925C4.81175 62.4656 2.38925 59.8553 2.38925 56.647V15.4585H16.27C16.7918 15.4585 17.2146 15.0031 17.2146 14.4412C17.2146 13.8794 16.7918 13.424 16.27 13.424H2.38937V8.34936C2.38937 5.14303 4.81175 2.53453 7.78937 2.53453H57.2074C60.1869 2.53453 62.6109 5.14303 62.6109 8.34936V13.4241H20.5954C20.0736 13.4241 19.6507 13.8795 19.6507 14.4414C19.6507 15.0032 20.0736 15.4586 20.5954 15.4586H62.6107V56.647C62.6107 59.8553 60.1867 62.4656 57.2072 62.4656V62.4656Z" fill="#9397AD"/>
<path d="M56.5873 42.9039H56.3353C56.2679 42.7092 56.1946 42.517 56.1159 42.3274L56.2918 42.138C56.6548 41.7471 56.854 41.2266 56.8528 40.6723C56.8515 40.1199 56.6511 39.6026 56.2925 39.22L54.4639 37.247C54.1021 36.8575 53.6203 36.643 53.1069 36.643C52.5936 36.643 52.1116 36.8576 51.75 37.247L51.5743 37.4362C51.3979 37.351 51.2193 37.2721 51.0386 37.1996V36.9286C51.0386 35.7914 50.1779 34.8662 49.1199 34.8662H46.5338C45.4758 34.8662 44.615 35.7914 44.615 36.9286V37.2575C44.4495 37.3272 44.2855 37.4025 44.1231 37.4833L43.9036 37.247C43.5418 36.8573 43.0603 36.643 42.5473 36.643C42.5456 36.643 42.5441 36.643 42.5426 36.643C42.0308 36.6443 41.5516 36.859 41.1928 37.2475L39.3649 39.2159C39.0024 39.6026 38.802 40.1199 38.8008 40.6723C38.7995 41.2266 38.9989 41.747 39.3616 42.1378L39.6341 42.4311C39.5706 42.5873 39.5114 42.7449 39.456 42.9038H39.0661C38.0101 42.9038 37.1509 43.8308 37.1509 44.97V47.7547C37.1509 48.8941 38.01 49.8209 39.0661 49.8209H39.511C39.5633 49.9647 39.6185 50.1068 39.6769 50.2476L39.3619 50.5868C38.6136 51.3925 38.6136 52.7035 39.3625 53.5099L41.1901 55.4742C41.5493 55.8647 42.0296 56.0804 42.5428 56.0817H42.5474C43.0604 56.0817 43.5419 55.8674 43.9039 55.4776L44.217 55.1402C44.3484 55.2035 44.4811 55.2633 44.6151 55.3195V55.7958C44.6151 56.9352 45.4759 57.862 46.5339 57.862H49.12C50.178 57.862 51.0388 56.935 51.0388 55.7958V55.3761C51.186 55.317 51.3328 55.2531 51.4785 55.1851L51.75 55.4774C52.1118 55.867 52.5936 56.0816 53.107 56.0816C53.6204 56.0816 54.1023 55.8671 54.464 55.4774L56.292 53.5091C56.6538 53.1195 56.853 52.6005 56.853 52.0479C56.853 51.4952 56.6538 50.9763 56.292 50.5866L56.0733 50.3511C56.1483 50.1764 56.2184 49.9994 56.2831 49.8207H56.5875C57.6456 49.8207 58.5064 48.8937 58.5064 47.7545V44.9697C58.5061 43.8308 57.6454 42.9039 56.5873 42.9039V42.9039ZM56.6169 47.7549C56.6169 47.7691 56.6005 47.7867 56.5873 47.7867H55.6096C55.1919 47.7867 54.8238 48.0821 54.7044 48.5132C54.5575 49.0429 54.3531 49.5586 54.0969 50.0458C53.8875 50.4437 53.9504 50.9433 54.2508 51.2665L54.9558 52.0256C54.966 52.0365 54.966 52.06 54.9558 52.0709L53.1278 54.0393C53.1236 54.0437 53.09 54.044 53.0856 54.0393L52.3416 53.2381C52.0493 52.9234 51.6009 52.8501 51.2348 53.0568C50.7775 53.3152 50.3074 53.5185 49.8374 53.6613C49.4303 53.785 49.1491 54.1849 49.1491 54.6403V55.7962C49.1491 55.8106 49.136 55.828 49.1196 55.828H46.5335C46.5204 55.828 46.504 55.8105 46.504 55.7962V54.5945C46.504 54.1446 46.2295 53.7481 45.8291 53.6197C45.3633 53.4703 44.9111 53.2661 44.4853 53.0134C44.342 52.9282 44.185 52.8869 44.0293 52.8869C43.7846 52.8869 43.5428 52.9891 43.361 53.1849L42.5676 54.0394C42.5655 54.0417 42.56 54.0476 42.547 54.0476H42.5469C42.5365 54.0476 42.5333 54.044 42.5284 54.0387L40.6976 52.071C40.6875 52.0601 40.6875 52.0367 40.6978 52.0258L41.4913 51.1713C41.7873 50.8525 41.8531 50.3619 41.653 49.9659C41.4195 49.5039 41.2286 49.0133 41.0858 48.5078C40.9645 48.0796 40.5978 47.7869 40.182 47.7869H39.066C39.0546 47.7869 39.04 47.7714 39.04 47.7551V44.9704C39.04 44.9541 39.0546 44.9386 39.066 44.9386H40.1394C40.5623 44.9386 40.9336 44.636 41.0485 44.1977C41.1829 43.6853 41.3716 43.1828 41.6098 42.7041C41.8064 42.3089 41.7395 41.8217 41.4451 41.5046L40.6976 40.6996C40.6955 40.6973 40.69 40.6914 40.69 40.6774C40.69 40.6664 40.6934 40.6627 40.6976 40.6581L42.529 38.6859C42.53 38.6848 42.5311 38.6836 42.532 38.6825C42.5331 38.6813 42.5364 38.6776 42.5468 38.6776H42.5469C42.5598 38.6776 42.5654 38.6836 42.5674 38.6857L43.2723 39.4448C43.5719 39.7674 44.0341 39.8358 44.4035 39.6122C44.8615 39.3348 45.3418 39.1141 45.8308 38.956C46.2304 38.8269 46.5039 38.4309 46.5039 37.9817V36.9289C46.5039 36.9166 46.5183 36.9009 46.5334 36.9009H49.1195C49.1369 36.9009 49.149 36.9156 49.149 36.9289V37.9361C49.149 38.3912 49.4298 38.7908 49.8364 38.9148C50.3445 39.0697 50.8399 39.2884 51.3088 39.5646C51.6766 39.7815 52.1335 39.7111 52.4303 39.3916L53.0858 38.6857C53.0899 38.6813 53.1244 38.682 53.127 38.6852L54.9588 40.6615C54.9599 40.6627 54.9633 40.6662 54.9633 40.6774C54.9633 40.6914 54.9578 40.6975 54.9555 40.6998L54.3001 41.4055C54.0035 41.725 53.9381 42.2168 54.1395 42.613C54.3943 43.1143 54.5974 43.6482 54.7434 44.2C54.859 44.6371 55.2299 44.9386 55.6519 44.9386H56.5871C56.6004 44.9386 56.6168 44.9561 56.6168 44.9704V47.7549H56.6169Z" fill="#764AF1"/>
<path d="M47.8264 41.0425C45.102 41.0425 42.8857 43.4291 42.8857 46.3626C42.8857 49.2961 45.102 51.6826 47.8264 51.6826C50.5506 51.6826 52.7669 49.2961 52.7669 46.3626C52.7669 43.4291 50.5505 41.0425 47.8264 41.0425ZM47.8264 49.6483C46.1439 49.6483 44.775 48.1744 44.775 46.3626C44.775 44.5508 46.144 43.0769 47.8264 43.0769C49.5089 43.0769 50.8776 44.5509 50.8776 46.3626C50.8776 48.1742 49.5087 49.6483 47.8264 49.6483Z" fill="#764AF1"/>
</svg>
