<svg class="{{class}}" width="65" height="65" viewBox="0 0 65 65" fill="none" xmlns="http://www.w3.org/2000/svg">
<path d="M32.7046 22.9087V3.11353H22.8069C20.1819 3.11353 17.6643 4.15632 15.8082 6.0125C13.952 7.86869 12.9092 10.3862 12.9092 13.0113C12.9092 15.6363 13.952 18.1538 15.8082 20.01C17.6643 21.8662 20.1819 22.909 22.8069 22.909L32.7046 22.9087Z" stroke="#9397AD" stroke-width="3" stroke-linecap="round" stroke-linejoin="round"/>
<path d="M32.7046 42.7039V22.9087H22.8069C20.1819 22.9087 17.6643 23.9515 15.8082 25.8077C13.952 27.6639 12.9092 30.1814 12.9092 32.8065C12.9092 35.4315 13.952 37.949 15.8082 39.8052C17.6643 41.6614 20.1819 42.7042 22.8069 42.7042L32.7046 42.7039ZM32.7046 22.9087V3.11353H42.6024C45.2274 3.11353 47.7449 4.15632 49.6011 6.0125C51.4573 7.86869 52.5001 10.3862 52.5001 13.0113C52.5001 15.6363 51.4573 18.1538 49.6011 20.01C47.7449 21.8662 45.2274 22.909 42.6024 22.909L32.7046 22.9087Z" stroke="#9397AD" stroke-width="3" stroke-linecap="round" stroke-linejoin="round"/>
<path d="M32.7047 42.7039V52.6017C32.7047 54.5593 32.1242 56.4729 31.0366 58.1006C29.9491 59.7283 28.4033 60.997 26.5947 61.7461C24.7861 62.4953 22.796 62.6913 20.876 62.3094C18.9561 61.9275 17.1924 60.9849 15.8082 59.6007C14.424 58.2164 13.4813 56.4528 13.0994 54.5328C12.7175 52.6129 12.9135 50.6228 13.6626 48.8142C14.4117 47.0056 15.6803 45.4598 17.308 44.3722C18.9357 43.2846 20.8493 42.7041 22.8069 42.7041L32.7047 42.7039Z" stroke="#9397AD" stroke-width="3" stroke-linecap="round" stroke-linejoin="round"/>
<path d="M42.6023 42.7042C48.0687 42.7042 52.5001 38.2728 52.5001 32.8064C52.5001 27.3401 48.0687 22.9087 42.6023 22.9087C37.136 22.9087 32.7046 27.3401 32.7046 32.8064C32.7046 38.2728 37.136 42.7042 42.6023 42.7042Z" stroke="#764AF1" stroke-width="3" stroke-linecap="round" stroke-linejoin="round"/>
</svg>
