<svg width="36" height="36" viewBox="0 0 36 36" fill="none" xmlns="http://www.w3.org/2000/svg">
<g clip-path="url(#clip0_2076_33004)">
<path d="M34.875 21.375C35.4937 21.375 36 20.8687 36 20.25C36 19.6312 35.4968 19.125 34.875 19.125C26.1914 19.125 19.125 26.1914 19.125 34.875C19.125 35.4968 19.6282 36 20.25 36C20.8718 36 21.375 35.4968 21.375 34.875C21.375 27.4289 27.4289 21.375 34.875 21.375ZM33.75 31.5C32.5076 31.5 31.5 32.5076 31.5 33.75C31.5 34.9924 32.5076 36 33.75 36C34.9924 36 36 34.9924 36 33.75C36 32.5076 34.9945 31.5 33.75 31.5ZM34.875 24.75C29.2915 24.75 24.75 29.2915 24.75 34.875C24.75 35.4968 25.2532 36 25.875 36C26.4968 36 27 35.4968 27 34.875C27 30.5332 30.5332 27 34.875 27C35.4968 27 36 26.4968 36 25.875C36 25.2532 35.4937 24.75 34.875 24.75Z" fill="#764AF1"/>
<path d="M20.25 21.375V4.5C20.25 3.25758 19.2445 2.25 18 2.25H4.5C3.25758 2.25 2.25 3.25758 2.25 4.5V31.5C2.25 32.7424 3.25758 33.75 4.5 33.75H14.625C15.2438 33.75 15.75 34.2563 15.75 34.875C15.75 35.4937 15.2438 36 14.625 36H4.5C2.01445 36 0 33.9855 0 31.5V4.5C0 2.01445 2.01445 0 4.5 0H18C20.4855 0 22.5 2.01445 22.5 4.5V21.375C22.5 21.9937 21.9963 22.5 21.375 22.5C20.7537 22.5 20.25 21.9963 20.25 21.375Z" fill="#98A2B3"/>
<path d="M7.875 29.25C7.875 28.6286 8.37872 28.125 9 28.125H13.5C14.1213 28.125 14.625 28.6286 14.625 29.25C14.625 29.8713 14.1213 30.375 13.5 30.375H9C8.37872 30.375 7.875 29.8713 7.875 29.25Z" fill="#98A2B3"/>
</g>
<defs>
<clipPath id="clip0_2076_33004">
<rect width="36" height="36" fill="white"/>
</clipPath>
</defs>
</svg>
