<svg width="65" height="65" viewBox="0 0 65 65" fill="none" xmlns="http://www.w3.org/2000/svg">
<g clip-path="url(#clip0_1452_3636)">
<path d="M24.5 4.5H26.5V6.5H24.5V4.5Z" fill="#9397AD"/>
<path d="M10.5 4.5H12.5V6.5H10.5V4.5Z" fill="#9397AD"/>
<path d="M14.5 4.5H22.5V6.5H14.5V4.5Z" fill="#9397AD"/>
<path d="M18.5 60.5C20.709 60.5 22.5 58.709 22.5 56.5C22.5 54.291 20.709 52.5 18.5 52.5C16.291 52.5 14.5 54.291 14.5 56.5C14.5 58.709 16.291 60.5 18.5 60.5ZM18.5 54.5C19.6045 54.5 20.5 55.3955 20.5 56.5C20.5 57.6045 19.6045 58.5 18.5 58.5C17.3955 58.5 16.5 57.6045 16.5 56.5C16.5 55.3955 17.3955 54.5 18.5 54.5Z" fill="#9397AD"/>
<path d="M43.5 21.5C38.5293 21.5 34.5 25.5293 34.5 30.5C34.5 35.4707 38.5293 39.5 43.5 39.5C48.4707 39.5 52.5 35.4707 52.5 30.5C52.4941 25.5317 48.4683 21.5059 43.5 21.5ZM43.5 37.5C39.6338 37.5 36.5 34.3662 36.5 30.5C36.5 26.6338 39.6338 23.5 43.5 23.5C47.3662 23.5 50.5 26.6338 50.5 30.5C50.4956 34.3643 47.3643 37.4956 43.5 37.5Z" fill="#764AF1"/>
<path d="M43.5 26.5C41.291 26.5 39.5 28.291 39.5 30.5C39.5 32.709 41.291 34.5 43.5 34.5C45.709 34.5 47.5 32.709 47.5 30.5C47.5 28.291 45.709 26.5 43.5 26.5ZM43.5 32.5C42.3955 32.5 41.5 31.6045 41.5 30.5C41.5 29.3955 42.3955 28.5 43.5 28.5C44.6045 28.5 45.5 29.3955 45.5 30.5C45.5 31.6045 44.6045 32.5 43.5 32.5Z" fill="#764AF1"/>
<path d="M64.4258 28.7412L64.3662 28.0239L60.1328 26.9839C60.0073 26.3911 59.8506 25.8052 59.6631 25.229L62.8062 22.208L62.5 21.5581C61.9971 20.4951 61.4058 19.4761 60.7329 18.5122L60.3218 17.9229L56.1392 19.1421C55.7354 18.6934 55.3081 18.2661 54.8589 17.8618L56.0781 13.6792L55.4888 13.2681C54.5244 12.5947 53.5054 12.0034 52.4419 11.5L51.792 11.1929L48.771 14.3359C48.1948 14.1484 47.6089 13.9917 47.0161 13.8662L45.9761 9.63281L45.2588 9.57324C44.0884 9.4751 42.9116 9.4751 41.7412 9.57324L41.0239 9.63281L39.9839 13.8662C39.3911 13.9917 38.8052 14.1484 38.229 14.3359L36.5 12.5381V3.5C36.5 1.84326 35.1567 0.5 33.5 0.5H3.5C1.84326 0.5 0.5 1.84326 0.5 3.5V61.5C0.5 63.1567 1.84326 64.5 3.5 64.5H33.5C35.1567 64.5 36.5 63.1567 36.5 61.5V48.4609L38.229 46.6611C38.8052 46.8496 39.3911 47.0063 39.9839 47.1309L41.0239 51.3618L41.7388 51.4229C42.3252 51.4731 42.917 51.498 43.5 51.498C44.083 51.498 44.6748 51.4731 45.2612 51.4229L45.9761 51.3618L47.0161 47.1309C47.6089 47.0063 48.1948 46.8496 48.771 46.6611L51.792 49.8032L52.4419 49.4961C53.5049 48.9932 54.5234 48.4023 55.4878 47.73L56.0771 47.3188L54.8579 43.1362C55.3066 42.7319 55.7339 42.3047 56.1382 41.856L60.3208 43.0752L60.7319 42.4858C61.4048 41.5225 61.9966 40.5039 62.5 39.4419L62.8071 38.792L59.6641 35.771C59.8525 35.1948 60.0093 34.6089 60.1338 34.0161L64.3672 32.9761L64.4268 32.2588C64.4751 31.666 64.5 31.0742 64.5 30.5C64.5 29.9258 64.4751 29.334 64.4258 28.7412ZM2.5 3.5C2.5 2.94775 2.94775 2.5 3.5 2.5H33.5C34.0522 2.5 34.5 2.94775 34.5 3.5V8.5H2.5V3.5ZM2.5 10.5H34.5V11.5322C33.458 12.0273 32.4585 12.6079 31.5122 13.2681L30.9229 13.6792L32.1421 17.8618C31.6934 18.2661 31.2661 18.6934 30.8618 19.1421L26.6792 17.9229L26.2681 18.5122C25.5947 19.4761 25.0034 20.4951 24.5 21.5581L24.1929 22.208L27.3359 25.229C27.1479 25.8052 26.9912 26.3911 26.8662 26.9839L22.6328 28.0239L22.5732 28.7412C22.5249 29.334 22.5 29.9258 22.5 30.5C22.5 31.0742 22.5249 31.666 22.5742 32.2588L22.6338 32.9761L26.8672 34.0171C26.9922 34.6099 27.1489 35.1953 27.3369 35.771L24.1938 38.792L24.501 39.4419C25.0044 40.5049 25.5952 41.5234 26.2681 42.4878L26.6792 43.0771L30.8618 41.8579C31.2661 42.3066 31.6934 42.7339 32.1421 43.1382L30.9229 47.3208L31.5122 47.7319C31.9028 48.0049 32.312 48.2549 32.7178 48.5H2.5V10.5ZM34.5 61.5C34.5 62.0522 34.0522 62.5 33.5 62.5H3.5C2.94775 62.5 2.5 62.0522 2.5 61.5V50.5H34.5V61.5ZM62.479 31.3799L58.396 32.3799L58.2861 33.0259C58.1309 33.9365 57.8911 34.8301 57.5698 35.6958L57.3408 36.311L60.373 39.2251C60.1016 39.7461 59.8071 40.2539 59.4888 40.748L55.4521 39.5718L55.0332 40.0718C54.4424 40.7812 53.7891 41.4351 53.0801 42.0259L52.5801 42.4448L53.7559 46.4819C53.2622 46.7998 52.7544 47.0942 52.2329 47.3652L49.3198 44.3359L48.7061 44.563C47.8398 44.8838 46.9458 45.1235 46.0352 45.2788L45.3892 45.3892L44.3892 49.4722C43.7998 49.5 43.2178 49.5 42.6289 49.4722L41.6289 45.3892L40.9829 45.2788C40.0684 45.1265 39.1704 44.8892 38.2998 44.5698L37.686 44.3428L34.7729 47.3721C34.2529 47.1021 33.7451 46.8076 33.25 46.4888L34.4258 42.4521L33.9258 42.0332C33.2173 41.4424 32.5635 40.7881 31.9731 40.0791L31.5542 39.5791L27.5171 40.7549C27.1992 40.2622 26.9043 39.7549 26.6328 39.2319L29.665 36.3179L29.4302 35.7002C29.1089 34.8345 28.8691 33.9409 28.7139 33.0308L28.604 32.3848L24.521 31.3848C24.5068 31.085 24.5 30.7939 24.5 30.5049C24.5 30.2158 24.5068 29.9219 24.521 29.625L28.604 28.625L28.7139 27.979C28.8687 27.0659 29.1084 26.1689 29.4302 25.2998L29.6582 24.6851L26.627 21.772C26.8984 21.252 27.1929 20.7441 27.5112 20.249L31.5479 21.4248L31.9668 20.9248C32.5571 20.2153 33.2109 19.5615 33.9199 18.9712L34.4199 18.5518L33.2441 14.5151C33.7378 14.1968 34.2456 13.9023 34.7671 13.6309L37.6802 16.6621L38.2949 16.4341C39.1611 16.1133 40.0547 15.8735 40.9648 15.7178L41.6108 15.6079L42.6108 11.5249C43.2051 11.4971 43.7769 11.4971 44.3711 11.5249L45.3711 15.6079L46.0171 15.7178C46.9272 15.8735 47.8213 16.1133 48.687 16.4341L49.3018 16.6621L52.2148 13.6309C52.7349 13.9019 53.2427 14.1963 53.7378 14.5151L52.562 18.5518L53.062 18.9712C53.7715 19.561 54.4253 20.2148 55.0161 20.9238L55.4351 21.4238L59.4722 20.248C59.79 20.7422 60.0845 21.2495 60.356 21.771L57.3252 24.6841L57.5532 25.2988C57.874 26.165 58.1133 27.0586 58.269 27.9692L58.3789 28.6152L62.4619 29.6152C62.4761 29.915 62.4829 30.2061 62.4829 30.4951C62.4829 30.7842 62.4932 31.083 62.479 31.3799Z" fill="#9397AD"/>
</g>
<defs>
<clipPath id="clip0_1452_3636">
<rect width="64" height="64" fill="white" transform="translate(0.5 0.5)"/>
</clipPath>
</defs>
</svg>
