<svg width="36" height="36" viewBox="0 0 36 36" fill="none" xmlns="http://www.w3.org/2000/svg">
<g clip-path="url(#clip0_2076_32917)">
<path d="M35.6695 34.0805L25.7203 24.1313C27.9141 21.5719 29.25 18.2602 29.25 14.625C29.25 6.5482 22.7039 0 14.625 0C6.54609 0 0 6.5482 0 14.625C0 22.7018 6.5482 29.25 14.625 29.25C18.2588 29.25 21.5754 27.9169 24.1313 25.7238L34.0805 35.673C34.2984 35.8875 34.5867 36 34.875 36C35.1633 36 35.4507 35.8902 35.6702 35.6704C36.1125 35.2336 36.1125 34.5164 35.6695 34.0805ZM14.625 27C7.74141 27 2.25 21.4453 2.25 14.625C2.25 7.80469 7.74141 2.25 14.625 2.25C21.5086 2.25 27 7.74141 27 14.625C27 21.5086 21.4453 27 14.625 27Z" fill="#98A2B3"/>
<path d="M15.875 13.625H20.375C20.9937 13.625 21.5 14.1282 21.5 14.75C21.5 15.3718 20.9968 15.875 20.375 15.875H15.875V20.375C15.875 20.9937 15.3718 21.5 14.75 21.5C14.1282 21.5 13.625 20.9968 13.625 20.375V15.875H9.125C8.50625 15.875 8 15.3688 8 14.75C8 14.1312 8.50625 13.625 9.125 13.625H13.625V9.125C13.625 8.50625 14.1282 8 14.75 8C15.3718 8 15.875 8.50316 15.875 9.125V13.625Z" fill="#764AF1"/>
</g>
<defs>
<clipPath id="clip0_2076_32917">
<rect width="36" height="36" fill="white"/>
</clipPath>
</defs>
</svg>
