<svg width="65" height="65" viewBox="0 0 65 65" fill="none" xmlns="http://www.w3.org/2000/svg">
<g clip-path="url(#clip0_1452_3035)">
<path d="M23.1051 35.1668C22.5717 35.1668 22.0597 34.9534 21.6837 34.5748L14.4117 27.2414C13.6331 26.4574 13.6384 25.1908 14.4224 24.4121C15.2091 23.6361 16.4731 23.6414 17.2544 24.4254L23.0091 30.2281L34.3237 17.1881C35.0464 16.3535 36.3104 16.2628 37.1451 16.9881C37.9797 17.7108 38.0677 18.9748 37.3451 19.8095L24.6171 34.4761C24.2517 34.8974 23.7264 35.1481 23.1717 35.1668C23.1504 35.1668 23.1264 35.1668 23.1051 35.1668Z" fill="#764AF1"/>
<path d="M25.8333 51.1667C11.8653 51.1667 0.5 39.8013 0.5 25.8333C0.5 11.8653 11.8653 0.5 25.8333 0.5C39.8013 0.5 51.1667 11.8653 51.1667 25.8333C51.1667 39.8013 39.8013 51.1667 25.8333 51.1667ZM25.8333 4.5C14.0707 4.5 4.5 14.0707 4.5 25.8333C4.5 37.596 14.0707 47.1667 25.8333 47.1667C37.596 47.1667 47.1667 37.596 47.1667 25.8333C47.1667 14.0707 37.596 4.5 25.8333 4.5Z" fill="#9397AD"/>
<path d="M62.5 64.5C61.988 64.5 61.476 64.3053 61.0867 63.9133L41.5933 44.42C40.812 43.6386 40.812 42.372 41.5933 41.5906C42.3747 40.8093 43.6413 40.8093 44.4227 41.5906L63.916 61.084C64.6973 61.8653 64.6973 63.132 63.916 63.9133C63.524 64.3053 63.012 64.5 62.5 64.5Z" fill="#9397AD"/>
</g>
<defs>
<clipPath id="clip0_1452_3035">
<rect width="64" height="64" fill="white" transform="translate(0.5 0.5)"/>
</clipPath>
</defs>
</svg>
