<svg width="65" height="65" viewBox="0 0 65 65" fill="none" xmlns="http://www.w3.org/2000/svg">
<g clip-path="url(#clip0_1452_3042)">
<path d="M50.0484 45.9194H47.9839V35.5968H37.6613V33.5323H56.2419C60.7952 33.5323 64.5 29.8275 64.5 25.2742C64.5 21.0708 61.3413 17.5983 57.2742 17.0874V17.0161C57.2742 7.90955 49.8646 0.5 40.7581 0.5C35.1746 0.5 29.9627 3.35419 26.9248 8.00968C25.1214 7.14568 23.1426 6.69355 21.1452 6.69355C14.8587 6.69355 9.50026 10.997 8.09329 17.0419C3.84968 17.3815 0.5 20.9449 0.5 25.2742C0.5 29.0512 3.10748 32.3369 6.69355 33.2659V36.629C6.69355 37.973 7.55961 39.1085 8.75806 39.5359V41.9813C7.55961 42.4076 6.69355 43.5431 6.69355 44.8871V49.0161C6.69355 50.3601 7.55961 51.4956 8.75806 51.923V54.3684C7.55961 54.7947 6.69355 55.9302 6.69355 57.2742V61.4032C6.69355 63.1106 8.08297 64.5 9.79032 64.5H34.5645C36.2719 64.5 37.6613 63.1106 37.6613 61.4032V58.3064H47.9839V47.9839H50.0484V58.3064H64.5V35.5968H50.0484V45.9194ZM33.5323 35.5968V45.9194H31.4677V35.5968H27.3387V31.4677H34.5645C35.1333 31.4677 35.5968 31.9302 35.5968 32.5V35.5968H33.5323ZM17.0161 52.1129V54.1774H10.8226V52.1129H17.0161ZM19.0806 35.5968V31.4677H25.2742V35.5968H19.0806ZM17.0161 37.6613H9.79032C9.22155 37.6613 8.75806 37.1988 8.75806 36.629V32.5C8.75806 31.9302 9.22155 31.4677 9.79032 31.4677H17.0161V37.6613ZM17.0161 39.7258V41.7903H10.8226V39.7258H17.0161ZM19.0806 58.3064H25.2742V62.4355H19.0806V58.3064ZM19.0806 56.2419V37.6613H29.4032V56.2419H19.0806ZM2.56452 25.2742C2.56452 21.8595 5.34026 19.0827 8.77974 19.0827H8.78387L9.81406 19.1044L9.96064 18.228C10.8794 12.7405 15.5823 8.75806 21.1452 8.75806C23.1168 8.75806 25.0677 9.28039 26.7875 10.2693L27.6866 10.7854L28.1996 9.88529C30.7689 5.36916 35.5813 2.56452 40.7581 2.56452C48.7271 2.56452 55.2097 9.0471 55.2097 17.0161V17.0874C51.1426 17.5983 47.9839 21.0708 47.9839 25.2742H50.0484C50.0484 21.8585 52.8262 19.0806 56.2419 19.0806C59.6577 19.0806 62.4355 21.8585 62.4355 25.2742C62.4355 28.6899 59.6577 31.4677 56.2419 31.4677H37.4714C37.044 30.2693 35.9085 29.4032 34.5645 29.4032H9.79032C8.55058 29.4032 7.48632 30.1403 6.99187 31.1952C4.41742 30.4241 2.56452 28.0293 2.56452 25.2742ZM8.75806 44.8871C8.75806 44.3173 9.22155 43.8548 9.79032 43.8548H17.0161V50.0484H9.79032C9.22155 50.0484 8.75806 49.5859 8.75806 49.0161V44.8871ZM8.75806 61.4032V57.2742C8.75806 56.7044 9.22155 56.2419 9.79032 56.2419H17.0161V62.4355H9.79032C9.22155 62.4355 8.75806 61.973 8.75806 61.4032ZM35.5968 61.4032C35.5968 61.973 35.1333 62.4355 34.5645 62.4355H27.3387V58.3064H31.4677V47.9839H33.5323V58.3064H35.5968V61.4032ZM45.9194 56.2419H35.5968V37.6613H45.9194V56.2419ZM52.1129 37.6613H62.4355V56.2419H52.1129V37.6613Z" fill="#9397AD"/>
<path d="M21.145 39.7258H27.3386V41.7903H21.145V39.7258Z" fill="#764AF1"/>
<path d="M21.145 43.8547H27.3386V45.9193H21.145V43.8547Z" fill="#764AF1"/>
<path d="M21.145 47.9839H27.3386V50.0484H21.145V47.9839Z" fill="#764AF1"/>
<path d="M37.6611 39.7258H43.8547V41.7903H37.6611V39.7258Z" fill="#764AF1"/>
<path d="M37.6611 43.8547H43.8547V45.9193H37.6611V43.8547Z" fill="#764AF1"/>
<path d="M37.6611 47.9839H43.8547V50.0484H37.6611V47.9839Z" fill="#764AF1"/>
<path d="M54.1772 39.7258H60.3708V41.7903H54.1772V39.7258Z" fill="#764AF1"/>
<path d="M54.1772 43.8547H60.3708V45.9193H54.1772V43.8547Z" fill="#764AF1"/>
<path d="M54.1772 47.9839H60.3708V50.0484H54.1772V47.9839Z" fill="#764AF1"/>
<path d="M21.145 52.113H27.3386V54.1776H21.145V52.113Z" fill="#764AF1"/>
<path d="M37.6611 52.113H43.8547V54.1776H37.6611V52.113Z" fill="#764AF1"/>
<path d="M54.1772 52.113H60.3708V54.1776H54.1772V52.113Z" fill="#764AF1"/>
<path d="M40.758 6.69342V4.62891C36.0809 4.62891 31.8527 7.21781 29.7222 11.385L31.5606 12.3244C33.3361 8.85084 36.8602 6.69342 40.758 6.69342Z" fill="#9397AD"/>
<path d="M21.1451 12.887C22.4148 12.887 23.6648 13.2204 24.758 13.8532L25.7913 12.0674C24.3843 11.253 22.7781 10.8225 21.1451 10.8225C17.8388 10.8225 14.7554 12.6021 13.0986 15.4666L14.8855 16.501C16.1748 14.2723 18.5727 12.887 21.1451 12.887Z" fill="#9397AD"/>
<path d="M21.145 22.1773C21.145 23.8847 22.5344 25.2741 24.2418 25.2741C25.9492 25.2741 27.3386 23.8847 27.3386 22.1773C27.3386 20.47 25.9492 19.0806 24.2418 19.0806C22.5344 19.0806 21.145 20.47 21.145 22.1773ZM25.2741 22.1773C25.2741 22.7471 24.8106 23.2096 24.2418 23.2096C23.673 23.2096 23.2095 22.7471 23.2095 22.1773C23.2095 21.6075 23.673 21.1451 24.2418 21.1451C24.8106 21.1451 25.2741 21.6075 25.2741 22.1773Z" fill="#9397AD"/>
<path d="M32.5001 25.2741C34.2074 25.2741 35.5969 23.8847 35.5969 22.1773C35.5969 20.47 34.2074 19.0806 32.5001 19.0806C30.7927 19.0806 29.4033 20.47 29.4033 22.1773C29.4033 23.8847 30.7927 25.2741 32.5001 25.2741ZM32.5001 21.1451C33.0689 21.1451 33.5323 21.6075 33.5323 22.1773C33.5323 22.7471 33.0689 23.2096 32.5001 23.2096C31.9313 23.2096 31.4678 22.7471 31.4678 22.1773C31.4678 21.6075 31.9313 21.1451 32.5001 21.1451Z" fill="#9397AD"/>
<path d="M37.6611 22.1773C37.6611 23.8847 39.0506 25.2741 40.7579 25.2741C42.4653 25.2741 43.8547 23.8847 43.8547 22.1773C43.8547 20.47 42.4653 19.0806 40.7579 19.0806C39.0506 19.0806 37.6611 20.47 37.6611 22.1773ZM41.7902 22.1773C41.7902 22.7471 41.3267 23.2096 40.7579 23.2096C40.1891 23.2096 39.7256 22.7471 39.7256 22.1773C39.7256 21.6075 40.1891 21.1451 40.7579 21.1451C41.3267 21.1451 41.7902 21.6075 41.7902 22.1773Z" fill="#9397AD"/>
</g>
<defs>
<clipPath id="clip0_1452_3042">
<rect width="64" height="64" fill="white" transform="translate(0.5 0.5)"/>
</clipPath>
</defs>
</svg>
