<svg width="14" height="14" viewBox="0 0 14 14" fill="none" xmlns="http://www.w3.org/2000/svg">
<rect width="14" height="14" fill="#764AF1"/>
<path d="M5.93735 9.99999C5.79142 10.001 5.65081 9.9413 5.54501 9.83352L3.17403 7.3971C3.06586 7.28592 3.0033 7.13322 3.00013 6.97259C2.99695 6.81196 3.05341 6.65656 3.15709 6.54056C3.26078 6.42457 3.40318 6.3575 3.55298 6.35409C3.70279 6.35069 3.84772 6.41123 3.95589 6.5224L5.90348 8.523C6.75025 7.51816 8.72607 5.20885 10.1148 4.10716C10.2356 4.01777 10.3841 3.98232 10.5288 4.00833C10.6735 4.03434 10.8031 4.11977 10.8901 4.24651C10.9771 4.37324 11.0147 4.53133 10.9948 4.68724C10.9749 4.84316 10.8992 4.98465 10.7837 5.08173C9.10994 6.38923 6.39178 9.75786 6.36356 9.79115C6.31346 9.8533 6.25209 9.90387 6.18319 9.93977C6.11428 9.97567 6.03928 9.99616 5.96275 9.99999H5.93735Z" fill="white"/>
</svg>
