<svg width="16" height="16" viewBox="0 0 16 16" fill="none" xmlns="http://www.w3.org/2000/svg">
<rect x="1.65" y="1.65" width="12.7" height="12.7" rx="3.85" fill="#585C7B" stroke="#585C7B" stroke-width="1.3"/>
<path d="M7.36356 10.7912L7.44142 10.8539C7.38291 10.9265 7.31086 10.986 7.22939 11.0285C7.1479 11.0709 7.05886 11.0953 6.96774 11.0999L6.96275 11.1001V11.1H6.93772H6.93735V11C6.79142 11.001 6.65081 10.9413 6.54501 10.8335L7.36356 10.7912ZM7.36356 10.7912L7.43984 10.8558C7.44127 10.8541 7.4478 10.8461 7.45912 10.8322C7.57733 10.6872 8.21782 9.90128 9.03149 8.98049C9.92403 7.97046 11.0165 6.80794 11.8453 6.16054L11.8453 6.16059L11.8481 6.15829C11.9837 6.04431 12.0711 5.87958 12.094 5.69988C12.1169 5.52021 12.0738 5.33739 11.9726 5.18992C11.8712 5.04225 11.7188 4.94088 11.5465 4.90991C11.374 4.8789 11.1977 4.9214 11.0553 5.02679L11.0553 5.02674L11.0526 5.02882C9.69233 6.10797 7.77888 8.33127 6.89817 9.37419L6.96275 11C7.03928 10.9962 7.11428 10.9757 7.18319 10.9398C7.25209 10.9039 7.31346 10.8533 7.36356 10.7912Z" fill="white" stroke="white" stroke-width="0.2"/>
</svg>
