<svg width="16" height="16" viewBox="0 0 16 16" fill="none" xmlns="http://www.w3.org/2000/svg">
<path d="M5.75 14.85H10.25C11.47 14.85 12.64 14.3654 13.5027 13.5027C14.3654 12.64 14.85 11.47 14.85 10.25V5.75C14.85 4.53 14.3654 3.35998 13.5027 2.49731C12.64 1.63464 11.47 1.15 10.25 1.15H5.75C4.53 1.15 3.35998 1.63464 2.49731 2.49731C1.63464 3.35998 1.15 4.53 1.15 5.75V10.25C1.15 11.47 1.63464 12.64 2.49731 13.5027C3.35998 14.3654 4.53 14.85 5.75 14.85ZM3.34584 3.34584C3.98346 2.70821 4.84826 2.35 5.75 2.35H10.25C11.1517 2.35 12.0165 2.70821 12.6542 3.34584C13.2918 3.98346 13.65 4.84826 13.65 5.75V10.25C13.65 11.1517 13.2918 12.0165 12.6542 12.6542C12.0165 13.2918 11.1517 13.65 10.25 13.65H5.75C4.84826 13.65 3.98346 13.2918 3.34584 12.6542C2.70821 12.0165 2.35 11.1517 2.35 10.25V5.75C2.35 4.84826 2.70821 3.98346 3.34584 3.34584Z" fill="#585C7B" stroke="#585C7B" stroke-width="0.2"/>
</svg>
