<svg width="16" height="16" viewBox="0 0 16 16" fill="none" xmlns="http://www.w3.org/2000/svg">
<path d="M5.75 14.85H10.25C11.47 14.85 12.64 14.3654 13.5027 13.5027C14.3654 12.64 14.85 11.47 14.85 10.25V5.75C14.85 4.53 14.3654 3.35998 13.5027 2.49731C12.64 1.63464 11.47 1.15 10.25 1.15H5.75C4.53 1.15 3.35998 1.63464 2.49731 2.49731C1.63464 3.35998 1.15 4.53 1.15 5.75V10.25C1.15 11.47 1.63464 12.64 2.49731 13.5027C3.35998 14.3654 4.53 14.85 5.75 14.85ZM3.34584 3.34584C3.98346 2.70821 4.84826 2.35 5.75 2.35H10.25C11.1517 2.35 12.0165 2.70821 12.6542 3.34584C13.2918 3.98346 13.65 4.84826 13.65 5.75V10.25C13.65 11.1517 13.2918 12.0165 12.6542 12.6542C12.0165 13.2918 11.1517 13.65 10.25 13.65H5.75C4.84826 13.65 3.98346 13.2918 3.34584 12.6542C2.70821 12.0165 2.35 11.1517 2.35 10.25V5.75C2.35 4.84826 2.70821 3.98346 3.34584 3.34584Z" fill="#585C7B" stroke="#585C7B" stroke-width="0.2"/>
<path d="M7.43001 10.31L7.50566 10.3754C7.45242 10.437 7.38719 10.4871 7.31395 10.5227C7.24072 10.5583 7.161 10.5786 7.07966 10.5824L7.07501 10.5826V10.5825H7.05281H7.05251V10.4825C6.92326 10.4833 6.79871 10.434 6.70501 10.345L7.43001 10.31ZM7.43001 10.31L7.504 10.3773C7.50532 10.3758 7.51124 10.369 7.5215 10.3573C7.62728 10.2363 8.19371 9.58814 8.91353 8.82847C9.70403 7.99421 10.6709 7.03481 11.4039 6.50083L11.4039 6.50088L11.4067 6.4987C11.5295 6.40248 11.6099 6.26223 11.631 6.10768C11.6521 5.95313 11.6122 5.79644 11.5198 5.67082C11.4273 5.5452 11.2896 5.46052 11.1357 5.43474C10.9819 5.40895 10.8241 5.44409 10.6957 5.5327L10.6957 5.53266L10.693 5.53461C9.49008 6.4246 7.79997 8.25502 7.01738 9.11911L7.07501 10.4825C7.14279 10.4793 7.20922 10.4624 7.27025 10.4328C7.33128 10.4031 7.38564 10.3613 7.43001 10.31Z" fill="#585C7B" stroke="#585C7B" stroke-width="0.2"/>
</svg>
